<?xml version="1.0" encoding="utf-8"?>
<?xml-stylesheet href="./svg.css" type="text/css"?>
<!DOCTYPE svg PUBLIC "-//W3C//DTD SVG 1.1//EN" "http://www.w3.org/Graphics/SVG/1.1/DTD/svg11.dtd">

<svg id="Layer_1" data-name="Layer 1" xmlns="http://www.w3.org/2000/svg" viewBox="0 0 610.93 353.98" style="overflow:visible;">
  <title>FrontInNatal</title>

  <g id="Object-TATU" class="Object-TATU">
    <path class="Background" d="M666.76,325.32l13,0.59,7.56-17.09,5.16-2.33c0.79-8.25.51-10.37,1.42-18.28,0.06-.51,7.4-5.28,7.23-5.61-2.09-3.91-5.48-12.09-5.71-12.51s2.95-3.35,2.93-3.41c-12.71-31.63-15.55-43.12-43-56.52C669.6,198,671.45,186,673.82,177.34,679.4,157,670.32,151.95,654,160c-7.4-13.21-37.21-30.34-68.62-18.23-3.11-12.37-9.11-13.29-12.84-10.67-26.11,17.09-24.33,34.47-20.41,52.48L548,191.36c-40.51,3.27-76,48.6-76,48.6-15,31.94-7.66,55.59,5.93,75.25,5.49-28.46,6.69,2.06,14.57,1.91s0.81-24.82,3.57-23.94c2.36,0.75,8.74,11.63,11.23,12.5,25.68,9,87.06,14.37,94.83,21.88,7.4,7.15,13.28,4.53,18.54,3.51C641.43,327,653.69,348.14,666.76,325.32Z" transform="translate(-90.17 -129.89)"/>
    <g>
      <path class="cls-4" d="M622.58,232.72c2.47-9.43-3.94-11.54-10.18-8-5,2.84-11.17,13.43-4.7,17.47,5.07,4.76,16.9-1.36,14.87-9.47h0ZM610,262.34c-7.7,10.53-60.52,23.74-76.22,27.76-14.76,3.78-24.57,8.62-16-16.31,4.7-13.7,11.5-26.46,17.56-39.28,1,3.33-4.9,33,37.8,14.38,9.74-4.25,35.29-22.78,40.72-30.42,3.83-3.7,13.4-11.21,16.34-15.6,4.87,6.64.54,24.37-2.85,33C623.19,246.43,616.74,254.88,610,262.34Z" transform="translate(-90.17 -129.89)"/>
      <path class="cls-5" d="M666.37,163.89c-1.83,5.87-25.77,42.39-29.39,44.78-4.33-11.93,1.51-36.15,19-47.11,2.27-1.43,11-6,14.6-3.64C669.12,159.83,668,161.8,666.37,163.89Z" transform="translate(-90.17 -129.89)"/>
      <path class="cls-6" d="M606.45,265.58c12.22-13.61,31.69-42,23.79-62.71l2.08-1.1c1.12,3.46,1.28,6.87,2.25,10.24,3.28,1,8.32.37,10.13,1.38-4.37,18.92-10.86,28.39-23.59,40.9C618,257.39,609.85,263.86,606.45,265.58Z" transform="translate(-90.17 -129.89)"/>
      <path class="cls-6" d="M553.2,170.08c4.08-5.43,5.32-22.28,19.79-35.36,0.25-.23,1.55-1.33,1.58-1.37l0.47-1.13a0.53,0.53,0,0,0,0-.41c4.86-4.09,8.27,7.23,8.48,9.79-13.81,13.73-24.89,29.31-28.13,38.14Z" transform="translate(-90.17 -129.89)"/>
      <path class="cls-6" d="M666.37,163.89c1.63-2.1,2.75-4.06,4.17-6,6.79,5.53-2,39-17.05,47.83-2.66,1.56-10.24,4.53-14.72,3.46,4.69-2.5,14.39-12.27,18.18-17.1a51.23,51.23,0,0,0,11-28.88Z" transform="translate(-90.17 -129.89)"/>
      <path class="cls-6" d="M535.38,234.51l1.79-3.39c1.18,5.38-2.2,18.63,12.5,19.66,20.87,1.46,44.51-17.07,64.24-32.3C599.73,238.43,531.72,280.77,535.38,234.51Z" transform="translate(-90.17 -129.89)"/>
      <path class="Background tatu" d="M609.76,239.29c6.45,0.83,10.36-5.2,10.61-12.18-3.06,2.26-1.32,3.13-4.89,7.87a12.54,12.54,0,0,1-5.72,4.31h0Zm12.82-6.57c-3.47,7.69-7.33,10.37-14.87,9.47-6.47-4-.3-14.62,4.7-17.47C618.64,221.18,625,223.28,622.58,232.72Z" transform="translate(-90.17 -129.89)"/>
      <path class="cls-5" d="M553.2,170.08c1.07-9.65.72-15.68,6.67-24.77,4.25-6.51,10.37-12.21,15.2-13.49a0.53,0.53,0,0,1,0,.41l-0.47,1.13s-1.33,1.14-1.58,1.37C558.51,147.8,556.7,167.4,553.2,170.08Z" transform="translate(-90.17 -129.89)"/>
      <path class="cls-6" d="M607.28,242.06c7.55,0.9,12.61-2.76,15.53-10.3C624.83,241.52,612.58,246.94,607.28,242.06Z" transform="translate(-90.17 -129.89)"/>
      <path class="cls-7" d="M650.8,212.92c-13.91,37.22-26.63,43.9-50,61.17-11.14,8.24,33.45,36.09,49.11,38.27,4.81,0.67,5.93-.36,8.14-2.69,20.92-22,27.55-44.85,26.17-63.36a6,6,0,0,0-.15-1.53c-4.12-11.79-16.34-25.9-31.48-32.92C651.69,211.44,651.23,211.76,650.8,212.92Z" transform="translate(-90.17 -129.89)"/>
      <path class="cls-7" d="M689,303c-9.71,4-19.39,6.43-28.5,9.1a117.29,117.29,0,0,0,11.67-13.48c6.75-4.25,13.41-7.86,18.3-11.16L689,303h0Zm-39.69,11.39-0.6,0,0.15-.17Z" transform="translate(-90.17 -129.89)"/>
      <path class="cls-7" d="M685,274.17a58.91,58.91,0,0,1,6.63-6L695.89,279c0.4,1-13.57,10.15-20.27,14.54A82.39,82.39,0,0,0,685,274.17Z" transform="translate(-90.17 -129.89)"/>
      <path class="cls-7" d="M693.16,261.59a61.68,61.68,0,0,1-6.63,7,55.3,55.3,0,0,0,1.21-18.45C689.84,254.2,692.17,259.38,693.16,261.59Z" transform="translate(-90.17 -129.89)"/>
      <path class="cls-7" d="M677.87,320.66l-17.75-5.15c11.56-2.75,12.22-2.7,23.89-6.64Z" transform="translate(-90.17 -129.89)"/>
      <path class="cls-7" d="M537.36,222.28c-8.72,13.64-7.9,14.1-16.65,32.4-5.5,11.51-33.95,13.79-43.05,3.54-2.79-3.14-4.18-10.26-2.53-12.77,17.69-27,38-49.25,73.85-52.46C545,200.52,539.13,213.06,537.36,222.28Z" transform="translate(-90.17 -129.89)"/>
      <path class="cls-7" d="M632,196.68c-24.21,25.12-61.09,48.42-73,50.2-14.48,2.82-20.52-5.86-18.27-19.15,3.75-22.08,22-61.11,43.56-81,4.39-4,6.69-4.57,12.65-5.92,17.7-4,44.07,2.31,55.72,19.09C638.77,170.08,635.68,179.93,632,196.68Z" transform="translate(-90.17 -129.89)"/>
      <path class="cls-5" d="M471.34,255.49c-8.5,30.57,27.08,39,42.27,10.23C504.15,269.75,476.71,273.61,471.34,255.49Z" transform="translate(-90.17 -129.89)"/>
      <path class="cls-6" d="M493.67,311.63a2,2,0,0,1-1-1.23,5.74,5.74,0,0,1-.61-1.72c-2.08-7.48-2.42-14.86-3.07-22.29l-6.07-1.18c2.05,9.26,3.7,15.83,7.51,24,0.32,0.68,1,2.18,1.37,2.8L494,314.3Z" transform="translate(-90.17 -129.89)"/>
      <path class="cls-4" d="M493.67,311.63c-1.78-8.91-1.29-17.74-1.15-25.58l-3.51.34c0.65,7.43,1,14.81,3.07,22.29a5.74,5.74,0,0,0,.61,1.72A2,2,0,0,0,493.67,311.63Z" transform="translate(-90.17 -129.89)"/>
      <path class="cls-6" d="M478.64,298.6c0-.28.16-13.5,0.15-14.47l-4.16-1.67C475.19,287.89,475.91,293.86,478.64,298.6Z" transform="translate(-90.17 -129.89)"/>
      <path class="cls-8" d="M497,285.82c2.66,3.88,5.56,8.2,8.86,10.45l-3.29-12.54Z" transform="translate(-90.17 -129.89)"/>
      <ellipse class="Background tatu" cx="604.91" cy="266.36" rx="4.3" ry="2.26" transform="translate(-143.11 200.51) rotate(-29.33)"/>
      <polygon class="Background tatu" points="528.5 200.7 517.87 200.7 515.19 211.73 528.5 200.7"/>
      <polygon class="Background tatu" points="538.99 199.49 530.14 200.7 530.32 211.83 529.07 227.68 538.99 221.83 538.99 199.49"/>
      <path class="cls-5" d="M599.66,289c3.84,11.26,19,23.46,33.63,26.14a55.19,55.19,0,0,0,7.58.85,32,32,0,0,0,3.65-.05c2.91-.11,2.34.16,2.75,0.69-7.32,7.41-30.07,7.8-36.53,3.81-7.5-4.63-13.78-22-12.45-33Z" transform="translate(-90.17 -129.89)"/>
      <path class="cls-6" d="M647.28,316.62c-0.4-.53.16-0.79-2.75-0.69a32,32,0,0,1-3.65.05,55.19,55.19,0,0,1-7.58-.85c-14.6-2.68-29.8-14.88-33.63-26.14,3.28,2.24,6,5.77,9.36,8.46,10.31,8.24,26,16.66,39.18,17.55Z" transform="translate(-90.17 -129.89)"/>
      <path class="cls-6" d="M621.84,351.41a2.09,2.09,0,0,0,1.08-1.23,5.39,5.39,0,0,0,.67-1.72c2.29-7.48,2.67-14.26,3.38-21.69l6.69-.23A87.17,87.17,0,0,1,625.38,349c-0.35.68-1.09,2.18-1.51,2.8l-2.34,2.29Z" transform="translate(-90.17 -129.89)"/>
      <path class="cls-4" d="M621.84,351.41c2-8.91,1.42-16.91,1.27-24.74l3.87,0.1c-0.71,7.43-1.1,14.21-3.38,21.69a5.39,5.39,0,0,1-.67,1.72A2.09,2.09,0,0,1,621.84,351.41Z" transform="translate(-90.17 -129.89)"/>
      <path class="cls-6" d="M638.15,340.68c-0.05-.28-0.18-14.11-0.17-15.09l4.59-1C642,330,641.16,335.94,638.15,340.68Z" transform="translate(-90.17 -129.89)"/>
      <path class="cls-8" d="M617.54,326.14c-2.94,3.88-5.54,7.66-9.18,9.91L612,324.58Z" transform="translate(-90.17 -129.89)"/>
    </g>
  </g>

  <path id="Object-Background" class="Background" d="M669.4,407.56l-34,.56,32.08-84.57-40.31-44L472.76,238.19l-128.82-18L90.17,237l22.47,123.43L113.85,481c40.22,0.94,81.18-10.65,122.54-11.46,52.55-1,105.76,14.61,158.94,14.35,9.4,0,26-12.58,35.21-10.71,8.74,1.78,27.8,5.07,41.05,5.13,20,0.08,21.22-7.31,34.36-8.71,55.67-5.91,106.18-2,159.54-2Z" transform="translate(-90.17 -129.89)"/>
  <g id="Text-Front-in">
    <polygon id="Object-N-2" class="Text domino" points="325.26 173.4 322.34 122.6 338.79 121.5 348.29 143.43 350.12 120.28 365.46 122.12 358.89 173.4 347.19 173.4 338.42 161.34 339.15 174.13 325.26 173.4"/>
    <g id="Object-I" class="domino">
      <polygon class="Text" points="297.12 174.13 295.3 141.24 315.03 140.87 311.74 173.76 297.12 174.13 297.12 174.13"/>
      <path class="Text" d="M384,251a11.49,11.49,0,0,1,4.52-5.53,12.37,12.37,0,0,1,6.9-2.06,12.87,12.87,0,0,1,2.28.18,10.07,10.07,0,0,1,2.38.82,11.49,11.49,0,0,1,5.53,4.52,12.38,12.38,0,0,1,2.06,6.9,12.86,12.86,0,0,1-.18,2.28,10.07,10.07,0,0,1-.82,2.38,11.42,11.42,0,0,1-4.57,5.53,12.44,12.44,0,0,1-6.85,2.06,12.85,12.85,0,0,1-2.28-.18,10.05,10.05,0,0,1-2.38-.82,11.41,11.41,0,0,1-5.53-4.57,12.44,12.44,0,0,1-2.06-6.85,12.85,12.85,0,0,1,.18-2.28A10.07,10.07,0,0,1,384,251h0Z" transform="translate(-90.17 -129.89)"/>
    </g>
    <polygon id="Object-T" class="Text domino" points="226.96 174.86 224.4 138.31 214.53 137.95 214.53 120.74 258.02 122.6 256.19 141.97 243.4 141.6 239.75 174.49 226.96 174.86 226.96 174.86"/>
    <polygon id="Object-N" class="Text domino" points="169.21 173.4 166.29 122.6 182.74 121.5 192.24 143.43 194.06 120.28 209.41 122.12 202.84 173.4 191.14 173.4 182.37 161.34 183.1 174.13 169.21 173.4 169.21 173.4"/>
    <path id="Object-O" class="Text domino" d="M245.5,249.56H221L214.8,254l2.92,45.32,3.65,4.75,23.39-.73,4-5.12L251,254.68Zm-7,47.14L236,298.17h-5.48l-2.92-1.1-1.81-15.35,3.29-2.19h8.74l1.83,2.92Z" transform="translate(-90.17 -129.89)"/>
    <path id="Object-R" class="Text domino" d="M201.28,291.23l4-2.56,1.83-33.26-8-4.42-27.77,6.23L175.69,304h11l-0.37-6.94,7.67-.37,5.85,8.42,9.87-5.12Zm-3.62-5.12-7.32,2.56-4-1.46-1.83-12.43,1.46-3.29,10.61-1.1,1.83,2.92Z" transform="translate(-90.17 -129.89)"/>
    <polygon id="Object-F" class="Text domino" points="41.67 174.49 38.01 125.16 75.66 124.42 72 157.31 52.27 158.41 52.27 162.07 57.38 161.7 57.75 167.55 52.63 167.55 52.27 174.13 41.67 174.49 41.67 174.49"/>
  </g>
  <g id="Text-Natal">
    <polygon id="Object-T-2" data-name="Object-T" class="Text domino" points="488.06 321.29 480.18 202.21 532.72 201.33 525.71 290.64 567.74 290.64 561.61 324.79 488.06 321.29"/>
    <path id="Object-A-2" class="Text domino" d="M543.21,432.79L554.59,333l-17.51-15.76-58.66-1.75-10.51,4.38-5.25,40.28L489.8,368l6.13-26.27h16.64L521.32,354l-4.38,34.15L474,382l-11.38,10.51,5.25,56,6.13,7.88,47.28,0.88,5.25-6.13,14.88,11.35L559,445.92Zm-31.42.49-19.91-.06-3-5.88-2.75-17.14,6.14-4.7,24,3.76,1.16,20.56Z" transform="translate(-90.17 -129.89)"/>
    <polygon id="Object-T-3" data-name="Object-T" class="Text domino" points="287.55 325.66 281.43 238.1 257.78 237.23 257.78 196 361.98 200.46 357.6 246.86 326.95 245.99 318.2 324.79 287.55 325.66 287.55 325.66"/>
    <path id="Object-A" class="Text domino" d="M322.56,432.79L333.95,333l-17.51-15.76-58.66-1.75-10.51,4.38L242,360.12,269.15,368l6.13-26.27h16.64L300.67,354l-4.38,34.15L253.39,382,242,392.51l5.25,56,6.13,7.88,47.28,0.88,5.25-6.13,14.88,11.35,17.51-16.6Zm-34,.49-19.91-.06-3-5.88L263,410.2l6.14-4.7,24,3.76,1.16,20.56Z" transform="translate(-90.17 -129.89)"/>
    <polygon id="Object-N-2-2" data-name="Object-N" class="Text domino" points="45.02 322.16 38.01 200.46 77.41 197.83 100.18 250.36 104.56 194.91 141.33 199.32 125.57 322.16 97.55 322.16 76.54 293.27 78.29 323.91 45.02 322.16 45.02 322.16"/>
  </g>
  <g id="Object-TATU-front" class="Object-TATU-front">
    <path class="Background" d="M666.76,325.32l13,0.59,7.56-17.09,5.16-2.33c0.79-8.25.51-10.37,1.42-18.28,0.06-.51,7.4-5.28,7.23-5.61-2.09-3.91-5.48-12.09-5.71-12.51s2.95-3.35,2.93-3.41c-12.71-31.63-15.55-43.12-43-56.52C669.6,198,671.45,186,673.82,177.34,679.4,157,670.32,151.95,654,160c-7.4-13.21-37.21-30.34-68.62-18.23-3.11-12.37-9.11-13.29-12.84-10.67-26.11,17.09-24.33,34.47-20.41,52.48L548,191.36c-40.51,3.27-76,48.6-76,48.6-15,31.94-7.66,55.59,5.93,75.25,5.49-28.46,6.69,2.06,14.57,1.91s0.81-24.82,3.57-23.94c2.36,0.75,8.74,11.63,11.23,12.5,25.68,9,87.06,14.37,94.83,21.88,7.4,7.15,13.28,4.53,18.54,3.51C641.43,327,653.69,348.14,666.76,325.32Z" transform="translate(-90.17 -129.89)"/>
    <g>
      <path class="cls-4" d="M622.58,232.72c2.47-9.43-3.94-11.54-10.18-8-5,2.84-11.17,13.43-4.7,17.47,5.07,4.76,16.9-1.36,14.87-9.47h0ZM610,262.34c-7.7,10.53-60.52,23.74-76.22,27.76-14.76,3.78-24.57,8.62-16-16.31,4.7-13.7,11.5-26.46,17.56-39.28,1,3.33-4.9,33,37.8,14.38,9.74-4.25,35.29-22.78,40.72-30.42,3.83-3.7,13.4-11.21,16.34-15.6,4.87,6.64.54,24.37-2.85,33C623.19,246.43,616.74,254.88,610,262.34Z" transform="translate(-90.17 -129.89)"/>
      <path class="cls-5" d="M666.37,163.89c-1.83,5.87-25.77,42.39-29.39,44.78-4.33-11.93,1.51-36.15,19-47.11,2.27-1.43,11-6,14.6-3.64C669.12,159.83,668,161.8,666.37,163.89Z" transform="translate(-90.17 -129.89)"/>
      <path class="cls-6" d="M606.45,265.58c12.22-13.61,31.69-42,23.79-62.71l2.08-1.1c1.12,3.46,1.28,6.87,2.25,10.24,3.28,1,8.32.37,10.13,1.38-4.37,18.92-10.86,28.39-23.59,40.9C618,257.39,609.85,263.86,606.45,265.58Z" transform="translate(-90.17 -129.89)"/>
      <path class="cls-6" d="M553.2,170.08c4.08-5.43,5.32-22.28,19.79-35.36,0.25-.23,1.55-1.33,1.58-1.37l0.47-1.13a0.53,0.53,0,0,0,0-.41c4.86-4.09,8.27,7.23,8.48,9.79-13.81,13.73-24.89,29.31-28.13,38.14Z" transform="translate(-90.17 -129.89)"/>
      <path class="cls-6" d="M666.37,163.89c1.63-2.1,2.75-4.06,4.17-6,6.79,5.53-2,39-17.05,47.83-2.66,1.56-10.24,4.53-14.72,3.46,4.69-2.5,14.39-12.27,18.18-17.1a51.23,51.23,0,0,0,11-28.88Z" transform="translate(-90.17 -129.89)"/>
      <path class="cls-6" d="M535.38,234.51l1.79-3.39c1.18,5.38-2.2,18.63,12.5,19.66,20.87,1.46,44.51-17.07,64.24-32.3C599.73,238.43,531.72,280.77,535.38,234.51Z" transform="translate(-90.17 -129.89)"/>
      <path class="Background tatu" d="M609.76,239.29c6.45,0.83,10.36-5.2,10.61-12.18-3.06,2.26-1.32,3.13-4.89,7.87a12.54,12.54,0,0,1-5.72,4.31h0Zm12.82-6.57c-3.47,7.69-7.33,10.37-14.87,9.47-6.47-4-.3-14.62,4.7-17.47C618.64,221.18,625,223.28,622.58,232.72Z" transform="translate(-90.17 -129.89)"/>
      <path class="cls-5" d="M553.2,170.08c1.07-9.65.72-15.68,6.67-24.77,4.25-6.51,10.37-12.21,15.2-13.49a0.53,0.53,0,0,1,0,.41l-0.47,1.13s-1.33,1.14-1.58,1.37C558.51,147.8,556.7,167.4,553.2,170.08Z" transform="translate(-90.17 -129.89)"/>
      <path class="cls-6" d="M607.28,242.06c7.55,0.9,12.61-2.76,15.53-10.3C624.83,241.52,612.58,246.94,607.28,242.06Z" transform="translate(-90.17 -129.89)"/>
      <path class="cls-7" d="M650.8,212.92c-13.91,37.22-26.63,43.9-50,61.17-11.14,8.24,33.45,36.09,49.11,38.27,4.81,0.67,5.93-.36,8.14-2.69,20.92-22,27.55-44.85,26.17-63.36a6,6,0,0,0-.15-1.53c-4.12-11.79-16.34-25.9-31.48-32.92C651.69,211.44,651.23,211.76,650.8,212.92Z" transform="translate(-90.17 -129.89)"/>
      <path class="cls-7" d="M689,303c-9.71,4-19.39,6.43-28.5,9.1a117.29,117.29,0,0,0,11.67-13.48c6.75-4.25,13.41-7.86,18.3-11.16L689,303h0Zm-39.69,11.39-0.6,0,0.15-.17Z" transform="translate(-90.17 -129.89)"/>
      <path class="cls-7" d="M685,274.17a58.91,58.91,0,0,1,6.63-6L695.89,279c0.4,1-13.57,10.15-20.27,14.54A82.39,82.39,0,0,0,685,274.17Z" transform="translate(-90.17 -129.89)"/>
      <path class="cls-7" d="M693.16,261.59a61.68,61.68,0,0,1-6.63,7,55.3,55.3,0,0,0,1.21-18.45C689.84,254.2,692.17,259.38,693.16,261.59Z" transform="translate(-90.17 -129.89)"/>
      <path class="cls-7" d="M677.87,320.66l-17.75-5.15c11.56-2.75,12.22-2.7,23.89-6.64Z" transform="translate(-90.17 -129.89)"/>
      <path class="cls-7" d="M537.36,222.28c-8.72,13.64-7.9,14.1-16.65,32.4-5.5,11.51-33.95,13.79-43.05,3.54-2.79-3.14-4.18-10.26-2.53-12.77,17.69-27,38-49.25,73.85-52.46C545,200.52,539.13,213.06,537.36,222.28Z" transform="translate(-90.17 -129.89)"/>
      <path class="cls-7" d="M632,196.68c-24.21,25.12-61.09,48.42-73,50.2-14.48,2.82-20.52-5.86-18.27-19.15,3.75-22.08,22-61.11,43.56-81,4.39-4,6.69-4.57,12.65-5.92,17.7-4,44.07,2.31,55.72,19.09C638.77,170.08,635.68,179.93,632,196.68Z" transform="translate(-90.17 -129.89)"/>
      <path class="cls-5" d="M471.34,255.49c-8.5,30.57,27.08,39,42.27,10.23C504.15,269.75,476.71,273.61,471.34,255.49Z" transform="translate(-90.17 -129.89)"/>
      <path class="cls-6" d="M493.67,311.63a2,2,0,0,1-1-1.23,5.74,5.74,0,0,1-.61-1.72c-2.08-7.48-2.42-14.86-3.07-22.29l-6.07-1.18c2.05,9.26,3.7,15.83,7.51,24,0.32,0.68,1,2.18,1.37,2.8L494,314.3Z" transform="translate(-90.17 -129.89)"/>
      <path class="cls-4" d="M493.67,311.63c-1.78-8.91-1.29-17.74-1.15-25.58l-3.51.34c0.65,7.43,1,14.81,3.07,22.29a5.74,5.74,0,0,0,.61,1.72A2,2,0,0,0,493.67,311.63Z" transform="translate(-90.17 -129.89)"/>
      <path class="cls-6" d="M478.64,298.6c0-.28.16-13.5,0.15-14.47l-4.16-1.67C475.19,287.89,475.91,293.86,478.64,298.6Z" transform="translate(-90.17 -129.89)"/>
      <path class="cls-8" d="M497,285.82c2.66,3.88,5.56,8.2,8.86,10.45l-3.29-12.54Z" transform="translate(-90.17 -129.89)"/>
      <ellipse class="Background tatu" cx="604.91" cy="266.36" rx="4.3" ry="2.26" transform="translate(-143.11 200.51) rotate(-29.33)"/>
      <polygon class="Background tatu" points="528.5 200.7 517.87 200.7 515.19 211.73 528.5 200.7"/>
      <polygon class="Background tatu" points="538.99 199.49 530.14 200.7 530.32 211.83 529.07 227.68 538.99 221.83 538.99 199.49"/>
      <path class="cls-5" d="M599.66,289c3.84,11.26,19,23.46,33.63,26.14a55.19,55.19,0,0,0,7.58.85,32,32,0,0,0,3.65-.05c2.91-.11,2.34.16,2.75,0.69-7.32,7.41-30.07,7.8-36.53,3.81-7.5-4.63-13.78-22-12.45-33Z" transform="translate(-90.17 -129.89)"/>
      <path class="cls-6" d="M647.28,316.62c-0.4-.53.16-0.79-2.75-0.69a32,32,0,0,1-3.65.05,55.19,55.19,0,0,1-7.58-.85c-14.6-2.68-29.8-14.88-33.63-26.14,3.28,2.24,6,5.77,9.36,8.46,10.31,8.24,26,16.66,39.18,17.55Z" transform="translate(-90.17 -129.89)"/>
      <path class="cls-6" d="M621.84,351.41a2.09,2.09,0,0,0,1.08-1.23,5.39,5.39,0,0,0,.67-1.72c2.29-7.48,2.67-14.26,3.38-21.69l6.69-.23A87.17,87.17,0,0,1,625.38,349c-0.35.68-1.09,2.18-1.51,2.8l-2.34,2.29Z" transform="translate(-90.17 -129.89)"/>
      <path class="cls-4" d="M621.84,351.41c2-8.91,1.42-16.91,1.27-24.74l3.87,0.1c-0.71,7.43-1.1,14.21-3.38,21.69a5.39,5.39,0,0,1-.67,1.72A2.09,2.09,0,0,1,621.84,351.41Z" transform="translate(-90.17 -129.89)"/>
      <path class="cls-6" d="M638.15,340.68c-0.05-.28-0.18-14.11-0.17-15.09l4.59-1C642,330,641.16,335.94,638.15,340.68Z" transform="translate(-90.17 -129.89)"/>
      <path class="cls-8" d="M617.54,326.14c-2.94,3.88-5.54,7.66-9.18,9.91L612,324.58Z" transform="translate(-90.17 -129.89)"/>
    </g>
  </g>
</svg>
