<svg id="Layer_1" data-name="Layer 1" xmlns="http://www.w3.org/2000/svg" viewBox="0 0 595.28 168.22">
  <defs>
    <style>
      .cls-1 {
        fill: #ffaa01;
      }

      .cls-2 {
        fill: #fefefe;
      }

      .cls-3, .cls-4 {
        fill: none;
        stroke: #373435;
        stroke-width: 2px;
      }

      .cls-3 {
        stroke-dasharray: 84.67 84.67;
      }
    </style>
  </defs>
  <title>img</title>
  <g id="Camada_1">
    <rect class="cls-1" width="595.28" height="168.22"/>
  </g>
  <g id="Camada_1_0" data-name="Camada_1 0">
    <g id="_686286816384" data-name=" 686286816384">
      <polygon class="cls-2" points="74.01 132.53 58.71 132.53 58.71 74.93 92.75 74.93 92.75 87.43 74.01 87.43 74.01 98.4 91.28 98.4 91.28 110.93 74.01 110.93 74.01 132.53"/>
      <polygon class="cls-2" points="313.82 132.53 298.26 132.53 298.26 87.69 284.17 87.69 284.17 74.93 327.86 74.93 327.86 87.69 313.82 87.69 313.82 132.53"/>
      <polyline class="cls-3" points="298.26 132.53 298.26 87.69 284.17 87.69"/>
      <polyline class="cls-4" points="292.28 74.93 327.86 74.93 327.86 87.69"/>
      <path class="cls-2" d="M276,132.53H255.54L234.51,92h-0.37c0.51,6.38.77,11.25,0.77,14.6v26H221.1V74.93h20.35l20.95,40h0.23c-0.37-5.81-.54-10.46-0.54-14V74.93H276v57.6Z"/>
      <polygon class="cls-2" points="391.24 132.53 357.02 132.53 357.02 74.93 391.24 74.93 391.24 87.43 372.59 87.43 372.59 96.48 389.85 96.48 389.85 108.98 372.59 108.98 372.59 119.89 391.24 119.89 391.24 132.53"/>
      <path class="cls-4" d="M262.09,74.93H276m-41,31.63v26H221.1"/>
      <polyline class="cls-4" points="391.24 119.89 391.24 132.53 357.02 132.53"/>
      <path class="cls-2" d="M517.49,102.51c0,9.61-2.64,17-7.94,22.22s-12.73,7.8-22.31,7.8H468.6V74.93h20c9.24,0,16.38,2.38,21.4,7.09S517.49,93.59,517.49,102.51Zm-16.13.6c0-5.3-1-9.21-3.15-11.76s-5.24-3.83-9.52-3.83h-4.54v32.29h3.49c4.73,0,8.19-1.39,10.4-4.11S501.36,108.75,501.36,103.11Z"/>
      <path class="cls-4" d="M488.55,74.93q13.86,0,21.4,7.09t7.57,20.49c0,9.64-2.66,17-7.94,22.22s-12.76,7.8-22.34,7.8H468.6"/>
      <path class="cls-2" d="M210.7,103.68c0,9.69-2.35,17.06-7.11,22.11s-11.71,7.57-20.89,7.57-16-2.55-20.78-7.63-7.23-12.44-7.23-22.11,2.38-16.92,7.2-22,11.74-7.57,20.89-7.57,16.1,2.49,20.83,7.51S210.7,94,210.7,103.68Zm-39.63,0q0,16.71,11.62,16.72c3.94,0,6.89-1.36,8.79-4.08s2.86-6.89,2.86-12.64-1-10-2.92-12.73-4.82-4.11-8.65-4.11Q171.09,86.81,171.07,103.65Z"/>
      <path class="cls-4" d="M161.89,81.62q7.14-7.57,20.89-7.57t20.86,7.51m-17.06,5.78a12.3,12.3,0,0,0-3.8-.54,12.06,12.06,0,0,0-4.42.74"/>
      <path class="cls-2" d="M117.75,111.56v21H102.19V74.93h18.88q23.51,0,23.5,17,0,10-9.78,15.48l16.78,25.11H133.94l-12.22-21h-4Zm0-11.68h2.92c5.44,0,8.19-2.41,8.19-7.23,0-4-2.69-5.92-8-5.92h-3.09V99.88Z"/>
      <path class="cls-4" d="M121.72,111.56h-4M102.19,74.93h18.88c15.65,0,23.5,5.7,23.5,17m-15.73.74c0-4-2.66-6-8-6h-3.09"/>
      <polygon class="cls-2" points="74.01 132.53 58.71 132.53 58.71 74.93 92.75 74.93 92.75 87.43 74.01 87.43 74.01 98.4 91.28 98.4 91.28 110.93 74.01 110.93 74.01 132.53"/>
      <path class="cls-2" d="M456.15,132.53H435.74L414.71,92h-0.34c0.51,6.38.74,11.25,0.74,14.6v26H401.33V74.93h20.32l20.95,40h0.26c-0.37-5.81-.57-10.46-0.57-14V74.93h13.86v57.6Z"/>
      <polygon class="cls-4" points="347.33 140.16 362.58 140.16 362.58 124.91 347.33 124.91 347.33 140.16"/>
      <line class="cls-4" x1="347.33" y1="140.19" x2="362.61" y2="124.91"/>
      <line class="cls-4" x1="362.61" y1="140.19" x2="347.33" y2="124.91"/>
      <line class="cls-3" x1="401.02" y1="139.68" x2="401.02" y2="63.4"/>
      <line class="cls-3" x1="456.29" y1="139.68" x2="456.29" y2="63.4"/>
      <line class="cls-3" x1="393.31" y1="74.76" x2="464.54" y2="74.76"/>
      <line class="cls-3" x1="393.31" y1="132.45" x2="464.54" y2="132.45"/>
      <path class="cls-3" d="M484.19,119.81h3.46c4.73,0,8.19-1.39,10.4-4.14s3.32-6.92,3.32-12.59q0-7.91-3.15-11.74c-2.1-2.52-5.24-3.83-9.52-3.83"/>
      <polyline class="cls-4" points="372.59 96.48 389.88 96.48 389.88 108.98"/>
      <polyline class="cls-4" points="391.24 74.93 391.24 87.43 372.59 87.43"/>
      <line class="cls-4" x1="370.12" y1="90.78" x2="396.34" y2="90.78"/>
      <polyline class="cls-4" points="91.28 98.4 91.28 110.93 74.01 110.93"/>
      <polyline id="F-outline" class="cls-4" points="58.71 132.53 58.71 74.93 92.75 74.93 92.75 87.43 74.01 87.43"/>
      <polyline class="cls-3" points="241.43 74.93 262.38 114.96 262.63 114.96"/>
      <path class="cls-4" d="M180.57,113.77a6.59,6.59,0,1,0-6.6,6.58A6.59,6.59,0,0,0,180.57,113.77Z"/>
      <polyline class="cls-4" points="170.36 112.66 173.17 115.47 177.65 111.05"/>
      <polyline class="cls-4" points="253.96 126.04 246.39 126.04 246.39 141.49 261.75 141.49 261.75 134.46"/>
      <polyline class="cls-4" points="255.32 132.53 262.04 125.84 262.97 129.05"/>
      <path class="cls-3" d="M256.88,49.68a4.48,4.48,0,1,0-4.48,4.48A4.49,4.49,0,0,0,256.88,49.68Z"/>
      <line class="cls-4" x1="277.14" y1="27.23" x2="279.21" y2="27.23"/>
      <line class="cls-4" x1="282.27" y1="27.23" x2="297.78" y2="27.23"/>
      <line class="cls-4" x1="300.81" y1="27.17" x2="338.17" y2="27.17"/>
      <line class="cls-4" x1="290.89" y1="34.99" x2="308.64" y2="34.99"/>
      <line class="cls-4" x1="262.77" y1="124.71" x2="257.61" y2="125.5"/>
    </g>
  </g>
</svg>
